<svg width="17" height="17" viewBox="0 0 17 17" fill="none" xmlns="http://www.w3.org/2000/svg">
<path d="M0.75 1.54199C1.16421 1.54199 1.5 1.87778 1.5 2.29199V13.959C1.49965 14.3729 1.164 14.709 0.75 14.709C0.336003 14.709 0.000351414 14.3729 0 13.959V2.29199C0 1.87778 0.335786 1.54199 0.75 1.54199ZM8.55273 2.59473C8.84557 2.30189 9.32037 2.302 9.61328 2.59473C9.90617 2.88762 9.90617 3.36238 9.61328 3.65527L5.89355 7.375H15.75C16.1641 7.37518 16.5 7.71089 16.5 8.125C16.5 8.53911 16.1641 8.87482 15.75 8.875H5.89355L9.61328 12.5947C9.90617 12.8876 9.90617 13.3624 9.61328 13.6553C9.32037 13.948 8.84557 13.9481 8.55273 13.6553L3.55273 8.65527C3.50329 8.6058 3.46535 8.5493 3.43262 8.49121C3.41783 8.46498 3.40223 8.4392 3.39062 8.41113C3.36996 8.36106 3.35408 8.3095 3.34473 8.25684C3.33714 8.21404 3.33301 8.16997 3.33301 8.125C3.33301 8.0797 3.33703 8.03528 3.34473 7.99219C3.35384 7.94126 3.36898 7.8913 3.38867 7.84277L3.39258 7.83301C3.40372 7.80669 3.41866 7.78249 3.43262 7.75781C3.46529 7.7 3.5035 7.64399 3.55273 7.59473L8.55273 2.59473Z" fill="#581C87"/>
</svg>
