<svg width="17" height="17" viewBox="0 0 17 17" fill="none" xmlns="http://www.w3.org/2000/svg">
<path d="M0.75 1.54199C1.16421 1.54199 1.5 1.87778 1.5 2.29199V13.959C1.49965 14.3729 1.164 14.709 0.75 14.709C0.336003 14.709 0.000351414 14.3729 0 13.959V2.29199C0 1.87778 0.335786 1.54199 0.75 1.54199ZM10.2197 2.59473C10.5126 2.30183 10.9874 2.30183 11.2803 2.59473L16.2803 7.59473C16.3287 7.64312 16.366 7.6982 16.3984 7.75488C16.414 7.78203 16.4303 7.80875 16.4424 7.83789C16.4499 7.85595 16.454 7.87507 16.46 7.89355C16.4838 7.96678 16.5 8.0438 16.5 8.125C16.5 8.20587 16.4837 8.28249 16.46 8.35547C16.454 8.37397 16.4498 8.39305 16.4424 8.41113C16.4303 8.44031 16.414 8.46696 16.3984 8.49414C16.366 8.5511 16.3289 8.60667 16.2803 8.65527L11.2803 13.6553C10.9874 13.9482 10.5126 13.9482 10.2197 13.6553C9.92683 13.3624 9.92683 12.8876 10.2197 12.5947L13.9395 8.875H4.08301C3.66894 8.87482 3.33301 8.5391 3.33301 8.125C3.33301 7.7109 3.66894 7.37518 4.08301 7.375H13.9395L10.2197 3.65527C9.92683 3.36238 9.92683 2.88762 10.2197 2.59473Z" fill="#581C87"/>
</svg>
