<svg preserveAspectRatio="none" width="100%" height="100%" overflow="visible" style="display: block;" viewBox="0 0 100 42.1579" fill="none" xmlns="http://www.w3.org/2000/svg">
<g id="Logo Container">
<g id="Vector">
<path d="M15.6227 41.829L1.28791 33.7196C-0.431334 32.747 -0.428784 30.2694 1.29246 29.3004L15.6273 21.2298C16.4042 20.7923 17.3537 20.7948 18.1284 21.2363L32.2883 29.3069C33.9941 30.2791 33.9966 32.7372 32.2929 33.7129L18.1329 41.8224C17.3559 42.2673 16.402 42.2699 15.6227 41.829Z" fill="url(#paint0_linear_0_4)" fill-opacity="0.95"/>
<path d="M16.2492 30.7382L0.643026 21.8739C-0.211152 21.3887 -0.213514 20.1586 0.638794 19.6701L16.2449 10.7264C16.6378 10.5013 17.1208 10.5026 17.5124 10.7298L32.9256 19.6736C33.7701 20.1636 33.7677 21.3838 32.9214 21.8705L17.5082 30.7348C17.1187 30.9588 16.6399 30.9601 16.2492 30.7382Z" fill="url(#paint1_linear_0_4)" fill-opacity="0.95"/>
<path d="M16.2492 20.1798L0.643026 11.3154C-0.211152 10.8303 -0.213514 9.60016 0.638794 9.11171L16.2449 0.167964C16.6378 -0.0571626 17.1208 -0.0558622 17.5124 0.171376L32.9256 9.11513C33.7701 9.60512 33.7677 10.8254 32.9214 11.3121L17.5082 20.1764C17.1187 20.4004 16.6399 20.4016 16.2492 20.1798Z" fill="url(#paint2_linear_0_4)" fill-opacity="0.9"/>
</g>
<g id="elova">
<path d="M52.146 27.8666C50.37 27.8666 48.9825 27.3275 47.9835 26.2492C47.0003 25.155 46.5087 23.6565 46.5087 21.7536C46.5087 19.8507 47.0003 18.3601 47.9835 17.2818C48.9825 16.2035 50.37 15.6643 52.146 15.6643C53.3195 15.6643 54.3264 15.9101 55.1669 16.4017C56.0232 16.8933 56.6734 17.591 57.1174 18.4949C57.5614 19.3829 57.7834 20.4453 57.7834 21.6822C57.7834 21.8249 57.7754 21.9677 57.7596 22.1104C57.7596 22.2372 57.7517 22.372 57.7358 22.5147H48.6257V20.374H55.8567L54.7387 21.6347C54.7705 20.3978 54.5564 19.5018 54.0965 18.9468C53.6525 18.3918 53.0103 18.1143 52.1698 18.1143C51.3135 18.1143 50.6634 18.3997 50.2194 18.9706C49.7754 19.5256 49.5692 20.4533 49.6009 21.7536C49.6009 22.9746 49.8071 23.8706 50.2194 24.4414C50.6475 25.0123 51.2897 25.2977 52.146 25.2977C52.7645 25.2977 53.264 25.1709 53.6446 24.9172C54.0252 24.6634 54.2789 24.2829 54.4057 23.7754H57.5931C57.4028 25.044 56.8319 26.043 55.8805 26.7725C54.9449 27.5019 53.7001 27.8666 52.146 27.8666Z" fill="var(--fill-0, #020617)"/>
<path d="M59.8604 27.5812V11.6444H62.9764V27.5812H59.8604Z" fill="var(--fill-0, #020617)"/>
<path d="M71.0306 27.8429C69.7937 27.8429 68.7313 27.5891 67.8433 27.0817C66.9553 26.5743 66.2813 25.8686 65.8214 24.9647C65.3616 24.045 65.1316 22.9746 65.1316 21.7536C65.1316 20.5326 65.3616 19.4701 65.8214 18.5662C66.2813 17.6465 66.9553 16.9329 67.8433 16.4255C68.7313 15.918 69.7937 15.6643 71.0306 15.6643C72.2834 15.6643 73.3537 15.918 74.2418 16.4255C75.1298 16.9329 75.8037 17.6465 76.2636 18.5662C76.7235 19.4701 76.9534 20.5326 76.9534 21.7536C76.9534 22.9746 76.7235 24.045 76.2636 24.9647C75.8196 25.8686 75.1456 26.5743 74.2418 27.0817C73.3537 27.5891 72.2834 27.8429 71.0306 27.8429ZM71.0306 25.2026C71.6015 25.2026 72.0931 25.0837 72.5054 24.8458C72.9177 24.5921 73.2348 24.2115 73.4568 23.7041C73.6788 23.1808 73.7898 22.5306 73.7898 21.7536C73.7898 20.9766 73.6788 20.3343 73.4568 19.8269C73.2348 19.3036 72.9177 18.923 72.5054 18.6852C72.0931 18.4314 71.6015 18.3046 71.0306 18.3046C70.4598 18.3046 69.9682 18.4314 69.5559 18.6852C69.1594 18.923 68.8502 19.3036 68.6282 19.8269C68.4221 20.3343 68.319 20.9766 68.319 21.7536C68.319 22.5306 68.4221 23.1808 68.6282 23.7041C68.8502 24.2115 69.1594 24.5921 69.5559 24.8458C69.9682 25.0837 70.4598 25.2026 71.0306 25.2026Z" fill="var(--fill-0, #020617)"/>
<path d="M81.1695 27.5812L77.7919 15.9497H81.0744L83.3816 24.5841H83.7146L86.0457 15.9497H89.3044L85.9267 27.5812H81.1695Z" fill="var(--fill-0, #020617)"/>
<path d="M93.8156 27.8666C92.5153 27.8666 91.4845 27.5336 90.7234 26.8676C89.9622 26.2016 89.5816 25.2581 89.5816 24.0371C89.5816 23.2759 89.7561 22.602 90.1049 22.0152C90.4538 21.4285 90.9454 20.9766 91.5797 20.6594C92.2298 20.3423 92.9831 20.1837 93.8394 20.1837C94.553 20.1837 95.1635 20.2709 95.6709 20.4453C96.1942 20.6039 96.5986 20.818 96.884 21.0876L96.5034 22.2055V21.0162H96.6699V19.5177C96.6699 19.1212 96.5272 18.7962 96.2418 18.5424C95.9563 18.2729 95.552 18.1381 95.0287 18.1381C94.4737 18.1381 94.0693 18.2412 93.8156 18.4473C93.5777 18.6376 93.4588 18.8834 93.4588 19.1847V19.2798H90.4617V19.1371C90.4617 18.0271 90.8582 17.1708 91.651 16.5682C92.4439 15.9656 93.5857 15.6643 95.0763 15.6643C96.5827 15.6643 97.7482 16.0211 98.5728 16.7347C99.3974 17.4324 99.8097 18.3601 99.8097 19.5177V25.7735C99.8097 26.4078 99.8731 27.0103 100 27.5812H97.2884C97.1774 27.2006 97.1219 26.717 97.1219 26.1302V25.8448L98.5966 26.4157H97.1694C96.8523 26.8755 96.4162 27.2323 95.8612 27.4861C95.322 27.7398 94.6402 27.8666 93.8156 27.8666ZM94.6957 25.5594C95.3458 25.5594 95.8374 25.4167 96.1704 25.1312C96.5193 24.8458 96.6937 24.4494 96.6937 23.9419C96.6937 23.4345 96.5193 23.038 96.1704 22.7526C95.8374 22.4672 95.3458 22.3245 94.6957 22.3245C94.0455 22.3245 93.546 22.4672 93.1971 22.7526C92.8641 23.038 92.6976 23.4345 92.6976 23.9419C92.6976 24.4494 92.8641 24.8458 93.1971 25.1312C93.546 25.4167 94.0455 25.5594 94.6957 25.5594Z" fill="var(--fill-0, #020617)"/>
</g>
</g>
<defs>
<linearGradient id="paint0_linear_0_4" x1="0" y1="21.1043" x2="33.5691" y2="21.1043" gradientUnits="userSpaceOnUse">
<stop stop-color="#3C0E8B"/>
<stop offset="1" stop-color="#6B01F3"/>
</linearGradient>
<linearGradient id="paint1_linear_0_4" x1="1.16687" y1="21.0924" x2="32.8445" y2="21.0924" gradientUnits="userSpaceOnUse">
<stop stop-color="#502ADD"/>
<stop offset="1" stop-color="#795CF6"/>
</linearGradient>
<linearGradient id="paint2_linear_0_4" x1="0.242534" y1="10.1644" x2="33.7547" y2="11.5652" gradientUnits="userSpaceOnUse">
<stop stop-color="#B18CF6"/>
<stop offset="1" stop-color="#CBC0F9"/>
</linearGradient>
</defs>
</svg>
